<?xml version="1.0" standalone="no"?>
<!DOCTYPE svg PUBLIC "-//W3C//DTD SVG 20010904//EN"
 "http://www.w3.org/TR/2001/REC-SVG-20010904/DTD/svg10.dtd">
<svg version="1.0" xmlns="http://www.w3.org/2000/svg"
 width="512.000000pt" height="512.000000pt" viewBox="0 0 512.000000 512.000000"
 preserveAspectRatio="xMidYMid meet">
<metadata>
Created by potrace 1.14, written by Peter Selinger 2001-2017
</metadata>
<g transform="translate(0.000000,512.000000) scale(0.100000,-0.100000)"
fill="#000000" stroke="none">
<path d="M4055 5044 c-49 -31 -106 -67 -125 -79 -19 -13 -111 -71 -205 -130
-406 -258 -834 -559 -1195 -839 -155 -121 -491 -395 -521 -425 -9 -9 -45 -41
-80 -71 -133 -115 -321 -291 -524 -492 l-209 -208 -23 28 c-53 64 -143 202
-172 265 -43 92 -63 175 -65 277 -9 338 184 574 554 681 36 11 85 22 110 27
58 9 266 9 350 0 80 -9 275 -57 393 -97 48 -16 87 -28 87 -27 0 15 -297 195
-410 249 -117 56 -325 127 -415 143 -14 2 -37 6 -52 9 -318 57 -631 -13 -848
-189 -175 -142 -286 -341 -328 -587 -67 -385 58 -745 397 -1144 71 -83 352
-365 365 -365 4 0 55 62 112 138 243 321 553 694 829 996 146 159 214 230 455
471 330 330 524 512 870 814 92 80 300 253 440 365 88 71 169 136 180 145 11
9 40 31 65 50 91 70 83 68 -35 -5z"/>
<path d="M4097 4374 c-1 -1 -34 -4 -74 -8 -142 -11 -312 -56 -473 -124 -254
-107 -478 -257 -750 -501 -156 -140 -516 -507 -651 -662 -11 -13 -37 -42 -57
-64 -20 -22 -66 -74 -102 -115 -36 -41 -77 -88 -91 -105 -15 -16 -57 -66 -94
-110 -37 -44 -76 -91 -87 -104 -11 -13 -67 -83 -125 -155 -57 -72 -112 -140
-121 -151 -15 -19 -239 -321 -304 -410 -202 -278 -563 -830 -756 -1155 -113
-189 -207 -348 -227 -385 -13 -22 -55 -96 -94 -164 -39 -68 -70 -125 -69 -127
2 -1 53 64 113 144 60 81 112 149 115 152 4 3 19 23 35 45 17 22 68 90 115
150 47 61 126 162 175 225 85 110 422 533 463 582 11 13 50 59 87 103 37 44
88 105 114 134 25 30 63 75 85 100 336 396 833 905 1180 1208 67 58 135 118
151 132 17 15 75 61 130 102 427 324 898 584 1191 658 217 55 397 21 504 -96
67 -73 93 -143 96 -260 9 -290 -182 -554 -796 -1102 -113 -101 -131 -117 -230
-201 -36 -30 -78 -67 -95 -82 -24 -22 -272 -225 -425 -349 -97 -79 -284 -219
-292 -219 -17 0 -498 385 -498 399 0 12 195 277 289 391 225 276 467 514 741
732 144 114 363 268 440 308 14 7 27 16 30 20 4 5 99 61 160 93 109 58 101 61
-42 11 -413 -143 -873 -398 -1248 -691 -61 -47 -241 -192 -265 -214 -176 -154
-257 -229 -415 -388 -171 -171 -319 -329 -368 -391 l-20 -25 77 -67 c42 -37
85 -75 96 -85 29 -27 335 -277 445 -364 296 -234 574 -440 587 -435 16 7 338
250 543 411 183 144 408 329 575 474 61 53 137 119 169 146 33 28 69 59 80 70
12 11 62 56 111 100 152 134 446 434 534 544 205 257 316 487 352 731 11 78 8
289 -5 350 -3 14 -8 39 -12 55 -76 390 -396 682 -800 731 -51 6 -192 12 -197
8z"/>
</g>
</svg>
